<svg width="198" height="48" viewBox="0 0 198 48" fill="none" xmlns="http://www.w3.org/2000/svg">
<path d="M41.833 24.0001C41.833 18.6169 45.8671 14.5015 51.4163 14.5015C54.7617 14.5015 57.7134 16.1398 59.3271 18.7339L55.6866 20.8209C54.8601 19.4165 53.2858 18.5779 51.4163 18.5779C48.1497 18.5779 46.0442 20.7428 46.0442 24.0196C46.0442 27.2963 48.1497 29.4613 51.4163 29.4613C53.2858 29.4613 54.8994 28.6226 55.6866 27.2183L59.3271 29.3052C57.7528 31.8993 54.801 33.5377 51.4163 33.5377C45.8671 33.5182 41.833 29.3833 41.833 24.0001Z" fill="white"/>
<path d="M67.316 27.1403H65.3088V33.1476H61.0977V14.8721H68.477C71.9798 14.8721 74.7938 17.6612 74.7938 21.133C74.7938 23.3759 73.4163 25.4239 71.3894 26.4381L75.3251 33.1476H70.7991L67.316 27.1403ZM65.3088 23.4735H68.477C69.6381 23.4735 70.5826 22.4592 70.5826 21.1134C70.5826 19.7677 69.6381 18.7534 68.477 18.7534H65.3088V23.4735Z" fill="white"/>
<path d="M88.116 30.2609H81.2679L80.343 33.1281H75.7383L82.0157 14.8525H87.3879L93.6653 33.1281H89.0605L88.116 30.2609ZM86.8565 26.3601L84.6919 19.6506L82.5273 26.3601H86.8565Z" fill="white"/>
<path d="M99.4514 18.89V22.4202H106.299V26.4381H99.4514V33.1476H95.2402V14.8721H106.437V18.89H99.4514Z" fill="white"/>
<path d="M122.081 18.89H117.339V33.1476H113.127V18.89H108.365V14.8721H122.061V18.89H122.081Z" fill="white"/>
<path d="M123.321 14.8525H127.926L132.019 28.3105L136.112 14.8525H140.717L134.715 33.1281H129.343L123.321 14.8525Z" fill="white"/>
<path d="M153.882 29.1297V33.1476H142.291V14.8721H153.764V18.89H146.522V21.9131H153.114V25.892H146.522V29.1297H153.882Z" fill="white"/>
<path d="M162.146 27.1403H160.139V33.1476H155.928V14.8721H163.307C166.81 14.8721 169.624 17.6612 169.624 21.133C169.624 23.3759 168.246 25.4239 166.219 26.4381L170.155 33.1476H165.629L162.146 27.1403ZM160.159 23.4735H163.327C164.488 23.4735 165.432 22.4592 165.432 21.1134C165.432 19.7677 164.488 18.7534 163.327 18.7534H160.159V23.4735Z" fill="white"/>
<path d="M170.529 28.9937L174.17 26.9067C174.819 28.4281 175.961 29.4423 178.046 29.4423C180.054 29.4423 180.546 28.6621 180.546 27.96C180.546 26.8287 179.483 26.3996 176.728 25.6389C173.993 24.8783 171.297 23.5715 171.297 20.0802C171.297 16.5499 174.308 14.5215 177.495 14.5215C180.526 14.5215 182.907 15.9648 184.245 18.6564L180.683 20.7239C180.054 19.4171 179.188 18.6174 177.495 18.6174C176.177 18.6174 175.528 19.261 175.528 20.0022C175.528 20.8409 175.98 21.4065 178.853 22.2842C181.648 23.1229 184.776 24.0786 184.776 27.96C184.776 31.4902 181.923 33.5772 177.928 33.5772C174.032 33.5187 171.553 31.6853 170.529 28.9937Z" fill="white"/>
<path d="M198.001 29.1297V33.1476H186.41V14.8721H197.883V18.89H190.621V21.9131H197.214V25.892H190.621V29.1297H198.001Z" fill="white"/>
<path d="M8.24194 23.7661L10.6427 25.8335L10.9772 25.931C10.4066 25.4044 10.1311 24.7023 10.1311 23.9806C10.1311 23.2589 10.4066 22.5763 10.9772 22.0497L28.8845 5.33448C30.6752 3.65711 29.8881 1.82371 28.1958 1.02403C24.3191 -0.809374 19.7341 -0.0877155 16.6052 2.81843L8.43872 10.4446C8.24194 10.6397 8.00581 10.8737 7.80902 11.0687C3.75529 15.5352 4.6408 20.4113 8.24194 23.7661Z" fill="url(#paint0_linear)"/>
<path d="M21.5244 24.2538L19.4778 22.3424L18.9268 22.0693C19.4975 22.596 19.773 23.2981 19.773 24.0198C19.773 24.7219 19.4975 25.4241 18.9268 25.9507L1.01953 42.6659C-0.771196 44.3433 0.0159382 46.1767 1.70828 46.9763C5.58491 48.8097 10.17 48.0881 13.2988 45.1819L21.4653 37.5558C21.6818 37.3607 21.8983 37.1462 22.095 36.9316C26.1685 32.3871 25.1255 27.6086 21.5244 24.2538Z" fill="url(#paint1_linear)"/>
<path d="M1.01981 5.33446L8.91082 12.7071L14.0862 17.5442L18.9074 22.0497L21.4459 24.4097C25.2635 27.9595 25.2635 33.9668 21.4459 37.5361L25.7358 33.5182C28.5104 30.9436 29.8879 27.4523 29.8879 23.9806C29.8879 20.5088 28.5104 17.037 25.7358 14.443L13.2794 2.7989C10.1702 -0.107245 5.56551 -0.828907 1.68888 1.0045C0.0162184 1.82368 -0.77092 3.65709 1.01981 5.33446Z" fill="url(#paint2_linear)"/>
<path d="M28.8847 42.6655L20.9937 35.2929L15.8183 30.4558L10.9971 25.9503L8.45861 23.5903C4.64102 20.0405 4.64102 14.0332 8.45861 10.4639L4.16873 14.4818C1.39408 17.0563 0.0166016 20.5476 0.0166016 24.0194C0.0166016 27.4911 1.39408 30.9629 4.16873 33.557L16.6251 45.201C19.7343 48.1072 24.339 48.8288 28.2156 46.9954C29.8883 46.1763 30.6754 44.3429 28.8847 42.6655Z" fill="url(#paint3_linear)"/>
<defs>
<linearGradient id="paint0_linear" x1="3.41123" y1="22.5299" x2="31.0556" y2="0.394228" gradientUnits="userSpaceOnUse">
<stop offset="0.1012" stop-color="#0B5A74"/>
<stop offset="0.9003" stop-color="#24A0A5"/>
</linearGradient>
<linearGradient id="paint1_linear" x1="26.3866" y1="25.5497" x2="-1.1473" y2="47.597" gradientUnits="userSpaceOnUse">
<stop offset="0.1012" stop-color="#0B5A74"/>
<stop offset="0.9003" stop-color="#24A0A5"/>
</linearGradient>
<linearGradient id="paint2_linear" x1="1.47715" y1="-5.20101" x2="32.5464" y2="39.0749" gradientUnits="userSpaceOnUse">
<stop offset="0.0326771" stop-color="#2CD1C7"/>
<stop offset="0.6513" stop-color="#27B1B1"/>
<stop offset="0.9484" stop-color="#24A0A5"/>
</linearGradient>
<linearGradient id="paint3_linear" x1="0.000386622" y1="29.2138" x2="29.9024" y2="29.2138" gradientUnits="userSpaceOnUse">
<stop offset="0.0326771" stop-color="#2CD1C7"/>
<stop offset="0.6513" stop-color="#27B1B1"/>
<stop offset="0.9484" stop-color="#24A0A5"/>
</linearGradient>
</defs>
</svg>
