<svg width="24" height="24" viewBox="0 0 24 24" fill="none" xmlns="http://www.w3.org/2000/svg">
<path d="M12.0002 7.99805V20.6116" stroke="white" stroke-width="1.5" stroke-linecap="round" stroke-linejoin="round"/>
<path d="M5.99805 8.49874H8.9993" stroke="white" stroke-width="1.5" stroke-linecap="round" stroke-linejoin="round"/>
<path d="M5.99805 12.0002H8.9993" stroke="white" stroke-width="1.5" stroke-linecap="round" stroke-linejoin="round"/>
<path d="M5.99805 15.5017H8.9993" stroke="white" stroke-width="1.5" stroke-linecap="round" stroke-linejoin="round"/>
<path d="M15.001 8.49874H18.0022" stroke="white" stroke-width="1.5" stroke-linecap="round" stroke-linejoin="round"/>
<path d="M15.001 12.0002H18.0022" stroke="white" stroke-width="1.5" stroke-linecap="round" stroke-linejoin="round"/>
<path d="M15.001 15.5017H18.0022" stroke="white" stroke-width="1.5" stroke-linecap="round" stroke-linejoin="round"/>
<path fill-rule="evenodd" clip-rule="evenodd" d="M11.9998 21.0037C11.3864 19.7759 10.131 19.0011 8.75849 19.003H4.49612C4.09829 19.003 3.71675 18.845 3.43544 18.5637C3.15413 18.2824 2.99609 17.9008 2.99609 17.503V5.49661C2.99609 5.09877 3.15413 4.71724 3.43544 4.43593C3.71675 4.15462 4.09829 3.99658 4.49612 3.99658H7.99858C9.05978 3.99658 10.0775 4.41814 10.8279 5.16853C11.5783 5.91891 11.9998 6.93665 11.9998 7.99785C11.9998 5.78801 13.7913 3.99658 16.0011 3.99658H19.5036C19.9014 3.99658 20.2829 4.15462 20.5642 4.43593C20.8456 4.71724 21.0036 5.09877 21.0036 5.49661V17.503C21.0036 18.33 20.3342 19.001 19.5072 19.003H15.2412C13.8687 19.0011 12.6133 19.7759 11.9998 21.0037Z" stroke="white" stroke-width="1.5" stroke-linecap="round" stroke-linejoin="round"/>
</svg>
